<svg width="139" height="138" viewBox="0 0 139 138" fill="none" xmlns="http://www.w3.org/2000/svg">
<path d="M52 0C37.1535 0 23.9458 8.2685 14.8033 20.8438C5.66075 33.4247 0.25 50.3988 0.25 69C0.25 87.5955 5.66075 104.581 14.8033 117.156C23.9458 129.737 37.1535 138 52 138C99.3225 138 124.548 110.935 130.706 82.478C135.03 79.35 138.25 74.727 138.25 69C138.25 63.273 135.036 58.65 130.7 55.522C124.22 26.3465 94.0498 0 52 0ZM52 11.5C62.557 11.5 72.355 17.342 79.853 27.6747C87.351 37.996 92.25 52.67 92.25 69C92.25 85.33 87.351 99.9925 79.853 110.331C72.3492 120.652 62.557 126.5 52 126.5C41.443 126.5 31.645 120.658 24.147 110.325C16.649 100.004 11.75 85.33 11.75 69C11.75 52.67 16.649 38.0075 24.147 27.669C31.6508 17.342 41.443 11.5 52 11.5ZM88.6562 20.3033C106.136 29.5608 117.36 44.7868 120.103 59.6562L120.638 62.5312L123.34 63.7905C125.335 64.7105 126.75 66.6425 126.75 69C126.75 71.3575 125.336 73.2895 123.335 74.2095L120.643 75.4688L120.103 78.3438C117.044 94.99 107.005 111.314 86.8565 120.031C87.6443 119.088 88.455 118.168 89.1967 117.156C98.3392 104.575 103.75 87.6012 103.75 69C103.75 50.4045 98.3392 33.419 89.1967 20.8438C89.0357 20.6425 88.8115 20.5045 88.6562 20.3033ZM52 23C47.8888 23 44.0247 24.4835 40.5 26.956L52.1783 54.441L64.0405 27.1285C60.395 24.4663 56.2665 23 52 23ZM31.875 36.1158C27.3612 43.1883 24.262 52.6758 23.4283 63.25H43.375L31.875 36.1158ZM72.4872 36.6562L60.7975 63.25H80.566C79.761 52.9172 76.8343 43.6885 72.4758 36.6562H72.4872ZM23.4225 74.75C24.2275 85.0828 27.1542 94.3115 31.507 101.344L43.2025 74.75H23.4225ZM60.6192 74.75L72.1193 101.884C76.633 94.8117 79.7323 85.3242 80.566 74.75H60.6192ZM51.816 83.5533L39.9537 110.866C43.5935 113.54 47.7277 115 51.9942 115C56.1055 115 59.9695 113.517 63.4942 111.044L51.816 83.5533Z" fill="black"/>
</svg>
