<svg width="150" height="122" viewBox="0 0 150 122" fill="none" xmlns="http://www.w3.org/2000/svg">
<path d="M43.375 0.625L46.6122 8.53125C48.6305 13.4475 51.3732 25.7353 50.7407 31.5312C42.9035 36.3612 38.0965 41.0762 34.3878 45.0093C29.8568 41.3465 20.8925 35.125 6 35.125H0.25V40.875C0.25 51.8805 4.22325 60.8218 5.6435 63.875C4.206 66.9053 0.25 75.5303 0.25 86.875V92.625H6C20.7775 92.625 29.851 86.3805 34.3935 82.7408C41.1957 89.75 50.896 97.1387 63.1435 102.688C62.603 106.258 62.1775 111.243 63.6782 117.062L64.7592 121.375H69.25C76.3455 121.375 82.4577 117.85 87.397 114.728C91.4392 112.163 93.3942 110.369 94.4062 109.513C117.274 108.708 131.873 96.374 139.688 84.1783C147.772 71.58 149.75 59.022 149.75 59.022L149.928 57.5845L149.393 56.147C149.393 56.147 136.226 19.9853 100.519 18.2315C96.7235 13.6315 91.4163 9.8135 83.9873 6.7315C75.2012 3.0975 64.1497 0.625 52 0.625H43.375ZM60.0845 12.8438C67.341 13.6488 74.126 15.115 79.4908 17.3345C86.8392 20.3705 91.9567 24.7233 93.147 26.6783L94.7685 29.375H98C126.727 29.375 137.06 56.5725 137.893 58.8438C137.491 60.954 135.824 68.9753 129.987 78.0717C123.312 88.4678 112.507 98.375 92.25 98.375H90.0938L88.478 99.8125C88.478 99.8125 85.442 102.4 81.2905 105.022C79.1055 106.396 77.2483 106.644 75 107.54C75.23 104.913 75 101.072 75 101.072L76.2592 96.0405L71.5845 94.419C57.3475 88.9853 45.238 78.7445 39.0625 71.603L35.1065 66.9283L30.794 71.2408C30.794 71.2408 23.135 76.6113 13.1875 79.147C14.671 72.408 16.9595 66.3935 16.9595 66.3935L18.2188 63.875L16.9595 61.3565C16.9595 61.3565 14.4697 54.7555 13.0092 47.7003C23.6065 50.0405 30.794 56.5093 30.794 56.5093L35.1065 60.8218L39.0625 56.147C44.2088 50.3338 58.0662 35.8438 78.4155 33.147L76.794 21.8253C71.2913 22.5498 66.49 24.1425 61.8843 25.9652C61.591 21.1352 61.3438 16.978 60.0845 12.8438ZM112.375 52.375C110.088 52.375 107.894 53.2837 106.276 54.9012C104.659 56.5187 103.75 58.7125 103.75 61C103.75 63.2875 104.659 65.4813 106.276 67.0988C107.894 68.7163 110.088 69.625 112.375 69.625C114.662 69.625 116.856 68.7163 118.474 67.0988C120.091 65.4813 121 63.2875 121 61C121 58.7125 120.091 56.5187 118.474 54.9012C116.856 53.2837 114.662 52.375 112.375 52.375Z" fill="black"/>
</svg>
