<svg width="145" height="138" viewBox="0 0 145 138" fill="none" xmlns="http://www.w3.org/2000/svg">
<path d="M103.531 0.146973L97.0626 9.66897C97.0626 9.66897 100.587 12.4117 102.272 16.3217C103.733 19.7545 104.791 23.7795 99.2189 30.5127L94.1876 35.5497C77.2539 21.1287 60.0441 20.4502 60.0441 20.4502H56.8126L55.0129 23.3252C55.0129 23.3252 40.3504 48.2572 26.2629 74C19.2191 86.8685 12.2501 99.967 7.40861 110.3C4.97636 115.463 3.06736 119.96 1.83111 123.594C1.22736 125.411 0.796107 126.94 0.577607 128.625C0.347607 130.31 -0.279141 132.621 2.54986 135.456C5.38461 138.285 7.69611 137.652 9.38086 137.428C11.0656 137.204 12.5951 136.778 14.4121 136.175C18.0519 134.938 22.5426 133.029 27.7119 130.597C38.0274 125.75 51.1259 118.792 64.0001 111.743C89.7199 97.6325 114.675 82.993 114.675 82.993L117.55 81.1932V77.7777C117.55 77.7777 116.785 60.775 102.456 43.8182L104.428 41.662C104.923 41.1675 105.371 40.8282 105.866 40.4027L107.303 39.1435C114.088 33.934 120.511 34.141 126.175 35.5555C130.104 36.5482 133.818 38.2514 137.134 40.581L144.322 31.5995C144.322 31.5995 137.939 26.6832 128.866 24.412C126.859 23.9403 124.817 23.6402 122.759 23.515L134.438 11.831L126.169 3.56822L114.134 15.6087C113.844 14.2524 113.422 12.9275 112.875 11.6527C109.638 4.10872 103.531 0.152724 103.531 0.152724V0.146973ZM62.9191 32.669C66.6969 33.0312 77.5011 34.601 90.4156 47.5845C103.353 60.614 104.946 71.332 105.325 75.0752C104.382 75.6387 99.4661 78.6057 95.6251 80.8252C93.5883 76.3077 91.0562 72.0304 88.0754 68.0717L78.9156 75.081C82.9579 80.4687 84.6196 84.1775 85.5626 86.581C76.5573 91.6827 67.5122 96.7141 58.4284 101.675C57.8706 101.962 57.3761 102.278 56.8126 102.572C55.7546 99.4265 54.0296 95.6315 50.8844 91.25L41.5406 97.897C44.3696 101.853 45.7611 105.107 46.3936 107.241C46.5029 107.603 46.5029 107.689 46.5661 107.959C37.9699 112.565 29.6611 116.987 22.8531 120.178C19.3054 121.846 16.7869 122.766 14.2281 123.772C15.2401 121.213 16.1601 118.695 17.8219 115.147C22.4679 105.245 29.3449 92.331 36.3254 79.5717C39.6949 73.4192 42.2594 68.8135 45.3126 63.397C47.1526 65.0127 49.5331 67.192 52.1436 70.5845L61.1251 63.5752C58.2088 59.7045 54.8295 56.2055 51.0626 53.1562C57.0829 42.5992 61.8899 34.4457 62.9249 32.669H62.9191Z" fill="black"/>
</svg>
